<svg xmlns="http://www.w3.org/2000/svg" xmlns:xlink="http://www.w3.org/1999/xlink" width="185.648" height="185.648" viewBox="0 0 185.648 185.648">
  <defs>
    <clipPath id="clip-path">
      <rect id="Rectangle_14" data-name="Rectangle 14" width="185.648" height="185.648" fill="none"/>
    </clipPath>
  </defs>
  <g id="Group_160" data-name="Group 160" transform="translate(0 0)">
    <path id="Path_1" data-name="Path 1" d="M92.824,0,85.342,7.372,76.705,1.4l-6.09,8.556L61.067,5.576l-4.5,9.49L46.4,12.424,43.626,22.553l-10.469-.838-.983,10.456-10.457.984.837,10.469L12.425,46.4l2.642,10.166-9.492,4.5,4.377,9.548L1.4,76.7l5.977,8.639L0,92.824l7.372,7.482L1.4,108.943l8.557,6.09-4.377,9.548,9.49,4.5-2.642,10.164,10.129,2.778-.838,10.469,10.457.983.983,10.457,10.47-.837L46.4,173.223l10.165-2.642,4.5,9.492,9.547-4.377,6.09,8.557,8.638-5.977,7.483,7.372,7.482-7.371,8.637,5.976,6.089-8.557,9.548,4.377,4.5-9.49,10.164,2.642,2.779-10.129,10.468.838.984-10.457,10.457-.983-.838-10.47,10.13-2.777-2.642-10.165,9.491-4.5-4.377-9.547,8.557-6.09-5.976-8.638,7.372-7.483-7.372-7.481,5.976-8.638L175.7,70.616l4.377-9.547-9.491-4.5L173.225,46.4,163.1,43.627l.838-10.469-10.456-.984-.984-10.457-10.469.838-2.777-10.13-10.166,2.642-4.5-9.491-9.548,4.377L108.945,1.4l-8.639,5.976Z" fill="#fdd835"/>
    <g id="Group_2" data-name="Group 2">
      <g id="Group_1" data-name="Group 1" clip-path="url(#clip-path)">
        <path id="Path_2" data-name="Path 2" d="M161.466,92.824A68.642,68.642,0,1,1,92.824,24.182a68.642,68.642,0,0,1,68.642,68.642" fill="#fbc02d"/>
        <path id="Path_3" data-name="Path 3" d="M146.006,49.434A68.636,68.636,0,0,1,32.984,126.443,68.638,68.638,0,1,0,146.006,49.434" fill="#f9a825"/>
        <path id="Path_4" data-name="Path 4" d="M67.366,47.471A15.7,15.7,0,0,0,51.7,31.805,15.7,15.7,0,0,0,67.366,16.137,15.7,15.7,0,0,0,83.033,31.805,15.7,15.7,0,0,0,67.366,47.471" fill="#fff"/>
        <path id="Path_5" data-name="Path 5" d="M136.164,95.561a11.34,11.34,0,0,0-11.317-11.317,11.34,11.34,0,0,0,11.317-11.317,11.339,11.339,0,0,0,11.317,11.317,11.34,11.34,0,0,0-11.317,11.317" fill="#fff"/>
        <path id="Path_6" data-name="Path 6" d="M39.65,135.736a26.5,26.5,0,0,0-26.45-26.45,26.5,26.5,0,0,0,26.45-26.45,26.5,26.5,0,0,0,26.45,26.45,26.5,26.5,0,0,0-26.45,26.45" fill="#fff"/>
        <text id="_1" data-name="1" transform="translate(68.824 116.137)" fill="#2f4bfe" font-size="98" font-family="CherrySwash-Bold, Cherry Swash" font-weight="700"><tspan x="0" y="0">1</tspan></text>
      </g>
    </g>
  </g>
</svg>
